:FULLY-SPECIFIED
:FORCE-ALL-JOINTS-BE-3DOF
:DEGREES
510
root 5.80323 16.2746 -5.32851 -167.374 80.5277 -172.44
lfemur -25.3394 -16.1568 -22.3833
ltibia 52.942 -0 0
lfoot -26.2356 -5.03482 -0.0566491
ltoes 8.86603 -0 0
rfemur -57.5188 6.37051 5.12601
rtibia 62.0232 -0 0
rfoot 9.83665 9.27764 0.00701135
rtoes -19.0973 0 0
lowerback 8.41386 0.095841 -0.628345
upperback 1.44053 0.286833 2.76551
thorax -3.23884 0.202562 3.1955
lowerneck -8.63118 -11.8409 -3.51976
upperneck 11.0879 -15.7537 2.60299
head 5.24832 -7.67579 0.187519
lclavicle -1.60956e-14 1.35167e-14 -1.12608e-31
lhumerus -47.4577 -33.8145 117.228
lradius 57.1163 -0 0
lwrist 7.15685 0 0
lhand 4.94079 -0.629257 0.194241
lfingers 7.12502 -0 0
lthumb 30.287 26.6427 0.1148
rclavicle -1.60956e-14 1.35167e-14 -1.12608e-31
rhumerus -19.7942 43.0251 -80.7489
rradius 110.552 -0 0
rwrist -0.657224 0 0
rhand 5.08108 -12.9365 0.310062
rfingers 7.12502 -0 0
rthumb 30.4159 -40.0544 0.398945
511
root 5.87531 16.2162 -5.26463 -168.678 79.0726 -173.684
lfemur -25.6245 -15.4816 -22.3739
ltibia 54.2114 -0 0
lfoot -26.4955 -4.41516 -0.0734527
ltoes 7.82025 -0 0
rfemur -56.9277 6.08338 4.49746
rtibia 60.8001 -0 0
rfoot 10.0696 9.36327 0.00909016
rtoes -20.2407 0 0
lowerback 8.6489 0.156768 -0.468826
upperback 1.63831 0.418626 3.02149
thorax -3.17222 0.27511 3.35977
lowerneck -8.46787 -12.1089 -3.71498
upperneck 11.2259 -16.108 2.76271
head 5.31111 -7.84414 0.232561
lclavicle -1.81823e-14 1.33632e-14 -1.4599e-31
lhumerus -47.2107 -33.4342 117.036
lradius 57.3324 -0 0
lwrist 7.8589 0 0
lhand 3.59998 -1.03963 0.251972
lfingers 7.12502 -0 0
lthumb 29.0006 26.3898 0.148909
rclavicle -1.81823e-14 1.33632e-14 -1.4599e-31
rhumerus -16.9894 41.1469 -79.5538
rradius 112.234 -0 0
rwrist -3.72644 0 0
rhand 3.41268 -13.4616 0.402351
rfingers 7.12502 -0 0
rthumb 28.8149 -40.7584 0.517692
512
root 5.955 16.1517 -5.19401 -169.776 77.4591 -174.715
lfemur -25.9385 -14.735 -22.3675
ltibia 55.615 -0 0
lfoot -26.783 -3.72978 -0.0887622
ltoes 6.66404 -0 0
rfemur -56.2708 5.77341 3.79935
rtibia 59.4477 -0 0
rfoot 10.3272 9.45796 0.0109833
rtoes -21.5048 0 0
lowerback 8.90898 0.223371 -0.292159
upperback 1.85769 0.563318 3.30506
thorax -3.09832 0.355102 3.54151
lowerneck -8.28603 -12.4046 -3.93197
upperneck 11.3777 -16.5002 2.93862
head 5.38041 -8.03033 0.282169
lclavicle -2.04896e-14 1.31934e-14 -1.76388e-31
lhumerus -46.9405 -33.0129 116.828
lradius 57.5714 -0 0
lwrist 8.63502 0 0
lhand 2.11703 -1.4948 0.304605
lfingers 7.12502 -0 0
lthumb 27.5781 26.1093 0.18
rclavicle -2.04896e-14 1.31934e-14 -1.76388e-31
rhumerus -14.0372 39.0236 -78.4101
rradius 114.094 -0 0
rwrist -7.12 0 0
rhand 1.56707 -14.045 0.486543
rfingers 7.12502 -0 0
rthumb 27.043 -41.5404 0.626021
513
root 6.04061 16.0824 -5.11815 -170.688 75.7219 -175.556
lfemur -26.2746 -13.933 -22.3655
ltibia 57.1229 -0 0
lfoot -27.0921 -2.9935 -0.101373
ltoes 5.42189 -0 0
rfemur -55.5613 5.44934 3.0459
rtibia 57.9948 -0 0
rfoot 10.604 9.5597 0.0125429
rtoes -22.8629 0 0
lowerback 9.18863 0.294031 -0.10202
upperback 2.09417 0.717554 3.61034
thorax -3.01864 0.44078 3.73688
lowerneck -8.08915 -12.7215 -4.16645
upperneck 11.5396 -16.922 3.12679
head 5.45472 -8.23043 0.335237
lclavicle -2.29684e-14 1.3011e-14 -2.01428e-31
lhumerus -46.6537 -32.5594 116.608
lradius 57.8281 -0 0
lwrist 9.46884 0 0
lhand 0.523423 -1.98514 0.348002
lfingers 7.12502 -0 0
lthumb 26.0497 25.8072 0.205633
rclavicle -2.29684e-14 1.3011e-14 -2.01428e-31
rhumerus -11.0193 36.6967 -77.3714
rradius 116.092 -0 0
rwrist -10.7658 0 0
rhand -0.416618 -14.6745 0.556002
rfingers 7.12502 -0 0
rthumb 25.138 -42.3838 0.715392
514
root 6.13045 16.0097 -5.03854 -171.443 73.8961 -176.235
lfemur -26.626 -13.0912 -22.3685
ltibia 58.7053 -0 0
lfoot -27.4166 -2.22072 -0.110336
ltoes 4.11835 -0 0
rfemur -54.8126 5.1193 2.25136
rtibia 56.4701 -0 0
rfoot 10.8944 9.66648 0.013651
rtoes -24.2881 0 0
lowerback 9.48235 0.367185 0.0978869
upperback 2.34323 0.878056 3.9314
thorax -2.93471 0.5304 3.94203
lowerneck -7.88084 -13.0532 -4.41403
upperneck 11.7084 -17.3653 3.3234
head 5.53254 -8.44049 0.390675
lclavicle -2.55697e-14 1.28196e-14 -2.19218e-31
lhumerus -46.3565 -32.0824 116.38
lradius 58.0975 -0 0
lwrist 10.3439 0 0
lhand -1.14929 -2.50082 0.37886
lfingers 7.12502 -0 0
lthumb 24.4457 25.4895 0.223858
rclavicle -2.55697e-14 1.28196e-14 -2.19218e-31
rhumerus -8.00083 34.2128 -76.4742
rradius 118.189 -0 0
rwrist -14.5918 0 0
rhand -2.49905 -15.3373 0.605412
rfingers 7.12502 -0 0
rthumb 23.1376 -43.2716 0.778969
